# xmcd
#
# Track frame offsets:
#	150
#	21133
#	38350
#	54508
#	71143
#	93213
#	115248
#	133333
#	149225
#	160720
#	184010
#	195588
#
# Disc length: 2850 seconds
#
# Revision: 2
# Processed by: cddbd v1.5.1PL2 Copyright (c) Steve Scherf et al.
# Submitted via: EZCDDA 4.3.2
#
DISCID=a70b200c
DTITLE=Verônica Sabino
DYEAR=1900
DGENRE=
TTITLE0=Ser ou Estar
TTITLE1=Eu Te Odeio
TTITLE2=Não Há Razão pra Chorar
TTITLE3=Peito Vazio
TTITLE4=Três da Madrugada
TTITLE5=Teia
TTITLE6=Por Causa de Você
TTITLE7=Desconfiada
TTITLE8=Cansei de Ilusões
TTITLE9=Meu Namorado
TTITLE10=Qualquer Canção
TTITLE11=Todo Sentimento
EXTD=
EXTT0=
EXTT1=
EXTT2=
EXTT3=
EXTT4=
EXTT5=
EXTT6=
EXTT7=
EXTT8=
EXTT9=
EXTT10=
EXTT11=
PLAYORDER=
